<?xml version="1.0" encoding="UTF-8"?>
<svg width="512" height="512" viewBox="0 0 512 512" xmlns="http://www.w3.org/2000/svg">
  <defs>
    <linearGradient id="gradient" x1="0%" y1="0%" x2="100%" y2="100%">
      <stop offset="0%" style="stop-color:#3b82f6;stop-opacity:1" />
      <stop offset="100%" style="stop-color:#8b5cf6;stop-opacity:1" />
    </linearGradient>
  </defs>
  
  <!-- Background circle -->
  <circle cx="256" cy="256" r="204.8" fill="url(#gradient)" />
  
  <!-- Sparkles icon -->
  <g transform="translate(256, 256) scale(1)">
    <!-- Main sparkle -->
    <path d="M11.017 2.814a1 1 0 0 1 1.966 0l1.051 5.558a2 2 0 0 0 1.594 1.594l5.558 1.051a1 1 0 0 1 0 1.966l-5.558 1.051a2 2 0 0 0-1.594 1.594l-1.051 5.558a1 1 0 0 1-1.966 0l-1.051-5.558a2 2 0 0 0-1.594-1.594l-5.558-1.051a1 1 0 0 1 0-1.966l5.558-1.051a2 2 0 0 0 1.594-1.594z" fill="white" stroke="white" stroke-width="0.5"/>
    
    <!-- Additional sparkles -->
    <circle cx="20" cy="2" r="1" fill="white" opacity="0.8"/>
    <circle cx="22" cy="4" r="0.8" fill="white" opacity="0.6"/>
    <circle cx="4" cy="20" r="1.2" fill="white" opacity="0.7"/>
  </g>
</svg>